<?xml version="1.0" encoding="utf-8"?>
<!-- Svg Vector Icons : http://www.onlinewebfonts.com/icon -->
<!DOCTYPE svg PUBLIC "-//W3C//DTD SVG 1.1//EN" "http://www.w3.org/Graphics/SVG/1.1/DTD/svg11.dtd">
<svg version="1.1" xmlns="http://www.w3.org/2000/svg" xmlns:xlink="http://www.w3.org/1999/xlink" x="0px" y="0px" viewBox="0 0 1000 1000" enable-background="new 0 0 1000 1000" xml:space="preserve">
<metadata> Svg Vector Icons : http://www.onlinewebfonts.com/icon </metadata>
<g><path d="M826.7,10H173.3C83.1,10,10,83.1,10,173.3v653.3C10,916.8,83.1,990,173.3,990h653.3c90.2,0,163.3-73.2,163.3-163.4V173.3C990,83.1,916.9,10,826.7,10z M547.5,664.7c-44.5-3.5-63.2-25.5-98.1-46.7c-19.2,100.7-42.7,197.2-112.1,247.6c-21.4-152.1,31.5-266.4,56.1-387.7c-41.9-70.5,5.1-212.5,93.4-177.5c108.7,43-94.2,262.2,42.1,289.6c142.2,28.6,200.3-246.8,112.1-336.3c-127.4-129.3-370.9-3-341,182.2c7.3,45.3,54.1,59,18.7,121.5c-81.6-18.1-105.9-82.4-102.8-168.2c5-140.4,126.1-238.7,247.5-252.2c153.6-17.2,297.7,56.4,317.7,200.9C803.5,500.9,711.7,677.5,547.5,664.7L547.5,664.7z"/></g>
</svg>