<?xml version="1.0" encoding="utf-8"?>
<!-- Generator: Adobe Illustrator 17.1.0, SVG Export Plug-In . SVG Version: 6.00 Build 0)  -->
<!DOCTYPE svg PUBLIC "-//W3C//DTD SVG 1.1//EN" "http://www.w3.org/Graphics/SVG/1.1/DTD/svg11.dtd">
<svg xmlns="http://www.w3.org/2000/svg" xmlns:xlink="http://www.w3.org/1999/xlink" version="1.1" id="Capa_1" x="0px" y="0px" viewBox="0 0 297 297" style="enable-background:new 0 0 297 297;" xml:space="preserve" width="512px" height="512px">
<g>
	<path d="M242.833,181.5c4.418,0,8-3.582,8-8v-17c0-4.418-3.582-8-8-8s-8,3.582-8,8v17C234.833,177.918,238.415,181.5,242.833,181.5   z" fill="#FFFFFF"/>
	<path d="M242.833,231.5c4.418,0,8-3.582,8-8v-17c0-4.418-3.582-8-8-8s-8,3.582-8,8v17C234.833,227.918,238.415,231.5,242.833,231.5   z" fill="#FFFFFF"/>
	<path d="M242.833,131.5c4.418,0,8-3.582,8-8v-17c0-4.418-3.582-8-8-8s-8,3.582-8,8v17C234.833,127.918,238.415,131.5,242.833,131.5   z" fill="#FFFFFF"/>
	<path d="M242.833,82.5c4.418,0,8-3.582,8-8v-17c0-4.418-3.582-8-8-8s-8,3.582-8,8v17C234.833,78.918,238.415,82.5,242.833,82.5z" fill="#FFFFFF"/>
	<path d="M55.833,181.5c4.418,0,8-3.582,8-8v-17c0-4.418-3.582-8-8-8s-8,3.582-8,8v17C47.833,177.918,51.416,181.5,55.833,181.5z" fill="#FFFFFF"/>
	<path d="M55.833,231.5c4.418,0,8-3.582,8-8v-17c0-4.418-3.582-8-8-8s-8,3.582-8,8v17C47.833,227.918,51.416,231.5,55.833,231.5z" fill="#FFFFFF"/>
	<path d="M55.833,131.5c4.418,0,8-3.582,8-8v-17c0-4.418-3.582-8-8-8s-8,3.582-8,8v17C47.833,127.918,51.416,131.5,55.833,131.5z" fill="#FFFFFF"/>
	<path d="M55.833,82.5c4.418,0,8-3.582,8-8v-17c0-4.418-3.582-8-8-8s-8,3.582-8,8v17C47.833,78.918,51.416,82.5,55.833,82.5z" fill="#FFFFFF"/>
	<path d="M115.834,132.5c-4.418,0-8,3.582-8,8v17c0,4.418,3.582,8,8,8c4.418,0,8-3.582,8-8v-17   C123.834,136.082,120.252,132.5,115.834,132.5z" fill="#FFFFFF"/>
	<path d="M115.834,182.5c-4.418,0-8,3.582-8,8v17c0,4.418,3.582,8,8,8c4.418,0,8-3.582,8-8v-17   C123.834,186.082,120.252,182.5,115.834,182.5z" fill="#FFFFFF"/>
	<path d="M115.834,82.5c-4.418,0-8,3.582-8,8v17c0,4.418,3.582,8,8,8c4.418,0,8-3.582,8-8v-17   C123.834,86.082,120.252,82.5,115.834,82.5z" fill="#FFFFFF"/>
	<path d="M115.834,33.5c-4.418,0-8,3.582-8,8v17c0,4.418,3.582,8,8,8c4.418,0,8-3.582,8-8v-17   C123.834,37.082,120.252,33.5,115.834,33.5z" fill="#FFFFFF"/>
	<path d="M148.833,132.5c-4.418,0-8,3.582-8,8v17c0,4.418,3.582,8,8,8s8-3.582,8-8v-17C156.833,136.082,153.251,132.5,148.833,132.5   z" fill="#FFFFFF"/>
	<path d="M148.833,82.5c-4.418,0-8,3.582-8,8v17c0,4.418,3.582,8,8,8s8-3.582,8-8v-17C156.833,86.082,153.251,82.5,148.833,82.5z" fill="#FFFFFF"/>
	<path d="M148.833,33.5c-4.418,0-8,3.582-8,8v17c0,4.418,3.582,8,8,8s8-3.582,8-8v-17C156.833,37.082,153.251,33.5,148.833,33.5z" fill="#FFFFFF"/>
	<path d="M181.833,165.5c4.418,0,8-3.582,8-8v-17c0-4.418-3.582-8-8-8s-8,3.582-8,8v17C173.833,161.918,177.415,165.5,181.833,165.5   z" fill="#FFFFFF"/>
	<path d="M181.833,215.5c4.418,0,8-3.582,8-8v-17c0-4.418-3.582-8-8-8s-8,3.582-8,8v17C173.833,211.918,177.415,215.5,181.833,215.5   z" fill="#FFFFFF"/>
	<path d="M181.833,115.5c4.418,0,8-3.582,8-8v-17c0-4.418-3.582-8-8-8s-8,3.582-8,8v17C173.833,111.918,177.415,115.5,181.833,115.5   z" fill="#FFFFFF"/>
	<path d="M181.833,66.5c4.418,0,8-3.582,8-8v-17c0-4.418-3.582-8-8-8s-8,3.582-8,8v17C173.833,62.918,177.415,66.5,181.833,66.5z" fill="#FFFFFF"/>
	<path d="M280.833,248.183V24.5c0-4.418-3.249-8-7.667-8h-50.333v-8c0-4.418-3.249-8-7.667-8h-131c-4.418,0-8.333,3.582-8.333,8v8   H24.167c-4.418,0-8.333,3.582-8.333,8v223.683C6.833,251.804,0,260.887,0,271.5c0,14.252,11.774,25,27.167,25h247   c12.252,0,22.833-11.683,22.833-25C297,260.887,290.833,251.804,280.833,248.183z M16.167,271.5c0-4.963,4.037-9,9-9h247   c4.963,0,9,4.037,9,9c0,5.136-4.246,9-7,9h-247C20.69,280.5,16.167,276.799,16.167,271.5z M264.833,246.5h-42v-214h42V246.5z    M206.833,16.5v230h-51v-41c0-4.418-3.582-8-8-8s-8,3.582-8,8v41h-48v-230H206.833z M75.834,246.5h-44v-214h44V246.5z" fill="#FFFFFF"/>
</g>
<g>
</g>
<g>
</g>
<g>
</g>
<g>
</g>
<g>
</g>
<g>
</g>
<g>
</g>
<g>
</g>
<g>
</g>
<g>
</g>
<g>
</g>
<g>
</g>
<g>
</g>
<g>
</g>
<g>
</g>
</svg>
