<svg xmlns="http://www.w3.org/2000/svg" width="26.828" height="26.827" viewBox="0 0 26.828 26.827">
  <path id="bed" d="M24.47,9.531V0H2.358V9.531A3.15,3.15,0,0,0,0,12.575V26.827H4.716V23.579h17.4v3.249h4.716V12.575A3.15,3.15,0,0,0,24.47,9.531ZM22.9,1.572v7.86H21.326V4.716H5.5V9.432H3.93V1.572Zm-3.144,7.86H7.074V6.288h12.68ZM3.144,11h20.54a1.574,1.574,0,0,1,1.572,1.572H1.572A1.574,1.574,0,0,1,3.144,11ZM1.572,17.291V14.147H25.255v3.144Zm23.684,1.572v3.144H1.572V18.863ZM3.144,25.255H1.572V23.579H3.144Zm20.54,0V23.579h1.572v1.677Zm0,0" transform="translate(0 0)" fill="#fff"/>
</svg>
