<?xml version="1.0" encoding="utf-8"?>
<!DOCTYPE svg PUBLIC "-//W3C//DTD SVG 1.1//EN" "http://www.w3.org/Graphics/SVG/1.1/DTD/svg11.dtd">
<svg version="1.2" width="124.09mm" height="124.09mm" viewBox="0 0 12409 12409" preserveAspectRatio="xMidYMid" fill-rule="evenodd" stroke-width="28.222" stroke-linejoin="round" xmlns="http://www.w3.org/2000/svg" xmlns:ooo="http://xml.openoffice.org/svg/export" xmlns:xlink="http://www.w3.org/1999/xlink" xmlns:presentation="http://sun.com/xmlns/staroffice/presentation" xmlns:smil="http://www.w3.org/2001/SMIL20/" xmlns:anim="urn:oasis:names:tc:opendocument:xmlns:animation:1.0" xml:space="preserve">
 <defs class="ClipPathGroup">
  <clipPath id="presentation_clip_path" clipPathUnits="userSpaceOnUse">
   <rect x="0" y="0" width="12409" height="12409"/>
  </clipPath>
  <clipPath id="presentation_clip_path_shrink" clipPathUnits="userSpaceOnUse">
   <rect x="12" y="12" width="12385" height="12385"/>
  </clipPath>
 </defs>
 <defs class="TextShapeIndex">
  <g ooo:slide="id1" ooo:id-list="id3"/>
 </defs>
 <defs class="EmbeddedBulletChars">
  <g id="bullet-char-template-57356" transform="scale(0.00048828125,-0.00048828125)">
   <path d="M 580,1141 L 1163,571 580,0 -4,571 580,1141 Z"/>
  </g>
  <g id="bullet-char-template-57354" transform="scale(0.00048828125,-0.00048828125)">
   <path d="M 8,1128 L 1137,1128 1137,0 8,0 8,1128 Z"/>
  </g>
  <g id="bullet-char-template-10146" transform="scale(0.00048828125,-0.00048828125)">
   <path d="M 174,0 L 602,739 174,1481 1456,739 174,0 Z M 1358,739 L 309,1346 659,739 1358,739 Z"/>
  </g>
  <g id="bullet-char-template-10132" transform="scale(0.00048828125,-0.00048828125)">
   <path d="M 2015,739 L 1276,0 717,0 1260,543 174,543 174,936 1260,936 717,1481 1274,1481 2015,739 Z"/>
  </g>
  <g id="bullet-char-template-10007" transform="scale(0.00048828125,-0.00048828125)">
   <path d="M 0,-2 C -7,14 -16,27 -25,37 L 356,567 C 262,823 215,952 215,954 215,979 228,992 255,992 264,992 276,990 289,987 310,991 331,999 354,1012 L 381,999 492,748 772,1049 836,1024 860,1049 C 881,1039 901,1025 922,1006 886,937 835,863 770,784 769,783 710,716 594,584 L 774,223 C 774,196 753,168 711,139 L 727,119 C 717,90 699,76 672,76 641,76 570,178 457,381 L 164,-76 C 142,-110 111,-127 72,-127 30,-127 9,-110 8,-76 1,-67 -2,-52 -2,-32 -2,-23 -1,-13 0,-2 Z"/>
  </g>
  <g id="bullet-char-template-10004" transform="scale(0.00048828125,-0.00048828125)">
   <path d="M 285,-33 C 182,-33 111,30 74,156 52,228 41,333 41,471 41,549 55,616 82,672 116,743 169,778 240,778 293,778 328,747 346,684 L 369,508 C 377,444 397,411 428,410 L 1163,1116 C 1174,1127 1196,1133 1229,1133 1271,1133 1292,1118 1292,1087 L 1292,965 C 1292,929 1282,901 1262,881 L 442,47 C 390,-6 338,-33 285,-33 Z"/>
  </g>
  <g id="bullet-char-template-9679" transform="scale(0.00048828125,-0.00048828125)">
   <path d="M 813,0 C 632,0 489,54 383,161 276,268 223,411 223,592 223,773 276,916 383,1023 489,1130 632,1184 813,1184 992,1184 1136,1130 1245,1023 1353,916 1407,772 1407,592 1407,412 1353,268 1245,161 1136,54 992,0 813,0 Z"/>
  </g>
  <g id="bullet-char-template-8226" transform="scale(0.00048828125,-0.00048828125)">
   <path d="M 346,457 C 273,457 209,483 155,535 101,586 74,649 74,723 74,796 101,859 155,911 209,963 273,989 346,989 419,989 480,963 531,910 582,859 608,796 608,723 608,648 583,586 532,535 482,483 420,457 346,457 Z"/>
  </g>
  <g id="bullet-char-template-8211" transform="scale(0.00048828125,-0.00048828125)">
   <path d="M -4,459 L 1135,459 1135,606 -4,606 -4,459 Z"/>
  </g>
  <g id="bullet-char-template-61548" transform="scale(0.00048828125,-0.00048828125)">
   <path d="M 173,740 C 173,903 231,1043 346,1159 462,1274 601,1332 765,1332 928,1332 1067,1274 1183,1159 1299,1043 1357,903 1357,740 1357,577 1299,437 1183,322 1067,206 928,148 765,148 601,148 462,206 346,322 231,437 173,577 173,740 Z"/>
  </g>
 </defs>
 <defs class="TextEmbeddedBitmaps"/>
 <g>
  <g id="id2" class="Master_Slide">
   <g id="bg-id2" class="Background"/>
   <g id="bo-id2" class="BackgroundObjects"/>
  </g>
 </g>
 <g class="SlideGroup">
  <g>
   <g id="container-id1">
    <g id="id1" class="Slide" clip-path="url(#presentation_clip_path)">
     <g class="Page">
      <g class="Graphic">
       <g id="id3">
        <rect class="BoundingBox" stroke="none" fill="none" x="0" y="0" width="12409" height="12409"/>
        <path fill="rgb(255,255,255)" stroke="none" d="M 11921,4974 L 11651,4688 10704,2135 C 10543,1704 10130,1418 9670,1415 L 2905,1415 C 2445,1415 2032,1704 1870,2135 L 937,4656 548,5016 C 209,5304 13,5728 13,6172 L 13,9892 C 16,10501 511,10993 1119,10993 L 1818,10993 C 2426,10993 2921,10501 2923,9892 L 2923,9352 9485,9352 9485,9892 C 9487,10501 9982,10993 10590,10993 L 11289,10993 C 11897,10993 12392,10501 12395,9892 L 12395,6074 C 12392,5659 12223,5262 11921,4974 L 11921,4974 Z M 2368,2315 C 2452,2090 2667,1945 2905,1945 L 9672,1945 C 9911,1945 10125,2093 10209,2315 L 11035,4537 10418,4537 C 10273,3545 9350,2860 8358,3008 7566,3124 6945,3746 6828,4537 L 1542,4537 2368,2315 2368,2315 Z M 9879,4537 L 7363,4537 C 7508,3841 8191,3397 8887,3542 9384,3648 9773,4037 9879,4537 L 9879,4537 Z M 2394,9892 C 2392,10209 2135,10463 1818,10463 L 1119,10463 C 802,10463 545,10209 542,9892 L 542,9199 C 701,9302 910,9352 1119,9352 L 2394,9352 2394,9892 2394,9892 Z M 11866,9892 C 11863,10209 11606,10463 11289,10463 L 10590,10463 C 10273,10463 10016,10207 10014,9892 L 10014,9352 11289,9352 C 11498,9352 11707,9302 11866,9199 L 11866,9892 11866,9892 Z M 11289,8823 L 1119,8823 C 804,8826 545,8574 542,8257 L 542,6172 C 542,5881 672,5603 894,5416 897,5413 902,5408 905,5405 L 1265,5066 11284,5066 11538,5339 C 11540,5344 11548,5347 11551,5352 11749,5540 11863,5802 11863,6074 L 11863,8257 11866,8257 C 11863,8572 11604,8826 11289,8823 L 11289,8823 Z"/>
        <path fill="rgb(255,255,255)" stroke="none" d="M 3505,6125 L 1521,6125 C 1376,6125 1257,6244 1257,6389 L 1257,7765 C 1257,7910 1376,8029 1521,8029 L 3505,8029 C 3651,8029 3770,7910 3770,7765 L 3770,6389 C 3770,6244 3651,6125 3505,6125 L 3505,6125 Z M 3241,7500 L 1786,7500 1786,6654 3241,6654 3241,7500 3241,7500 Z"/>
        <path fill="rgb(255,255,255)" stroke="none" d="M 10887,6125 L 8903,6125 C 8757,6125 8638,6244 8638,6389 L 8638,7765 C 8638,7910 8757,8029 8903,8029 L 10887,8029 C 11032,8029 11151,7910 11151,7765 L 11151,6389 C 11151,6244 11032,6125 10887,6125 L 10887,6125 Z M 10622,7500 L 9167,7500 9167,6654 10622,6654 10622,7500 10622,7500 Z"/>
        <path fill="rgb(255,255,255)" stroke="none" d="M 7482,7236 L 4926,7236 C 4781,7236 4662,7355 4662,7500 4662,7646 4781,7765 4926,7765 L 7482,7765 C 7627,7765 7746,7646 7746,7500 7746,7355 7627,7236 7482,7236 L 7482,7236 Z"/>
        <path fill="rgb(255,255,255)" stroke="none" d="M 7482,6416 L 4926,6416 C 4781,6416 4662,6535 4662,6680 4662,6826 4781,6945 4926,6945 L 7482,6945 C 7627,6945 7746,6826 7746,6680 7746,6535 7627,6416 7482,6416 L 7482,6416 Z"/>
       </g>
      </g>
     </g>
    </g>
   </g>
  </g>
 </g>
</svg>