<?xml version="1.0" encoding="utf-8"?>
<!-- Generator: Adobe Illustrator 19.1.0, SVG Export Plug-In . SVG Version: 6.00 Build 0)  -->
<svg xmlns="http://www.w3.org/2000/svg" xmlns:xlink="http://www.w3.org/1999/xlink" version="1.1" id="Capa_1" x="0px" y="0px" viewBox="0 0 513.32 513.32" style="enable-background:new 0 0 513.32 513.32;" xml:space="preserve" width="512px" height="512px">
<g>
	<g>
		<g>
			<rect x="149.718" y="363.603" width="42.777" height="42.777" fill="#FFFFFF"/>
			<path d="M500.487,23.528c-4.278-2.139-6.416-2.139-10.694-2.139L19.249,64.166C8.555,64.166,0,74.86,0,85.554v213.883     c0,2.139,0,2.139,0,4.278c17.11,111.22,115.497,188.217,224.577,188.217c10.694,0,23.527,0,36.36-2.139     c4.278,0,8.555-2.139,10.694-4.278L506.904,273.77c4.278-4.278,6.416-10.694,6.416-14.972V42.778     C513.32,34.222,509.042,25.667,500.487,23.528L500.487,23.528z M235.272,449.156c-42.777,2.139-83.414-6.416-119.775-32.082     c-38.499-29.944-64.165-74.859-72.72-117.636h21.388v-42.777H42.777v-66.304c12.833,17.11,29.944,34.221,49.193,47.055     c42.777,29.944,91.97,44.916,143.302,42.777V449.156L235.272,449.156z M248.105,235.273     c-47.055,6.416-91.97-6.416-130.469-34.221c-34.221-23.527-59.887-57.749-70.581-96.247l81.275-8.555v10.694h42.777V94.11     l258.799-23.527L248.105,235.273L248.105,235.273z M470.543,248.106L278.048,421.351V267.355l106.942-96.247v21.388h42.777     v-42.777h-21.388l64.165-57.749v156.136L470.543,248.106z" fill="#FFFFFF"/>
			<rect x="213.883" y="149.719" width="42.777" height="42.777" fill="#FFFFFF"/>
			<rect x="342.213" y="256.661" width="42.777" height="42.777" fill="#FFFFFF"/>
		</g>
	</g>
</g>
<g>
</g>
<g>
</g>
<g>
</g>
<g>
</g>
<g>
</g>
<g>
</g>
<g>
</g>
<g>
</g>
<g>
</g>
<g>
</g>
<g>
</g>
<g>
</g>
<g>
</g>
<g>
</g>
<g>
</g>
</svg>
