<svg viewBox="-40 0 511 512" xmlns="http://www.w3.org/2000/svg"><path d="m244.476562 79.128906c59.957032 0 108.734376 48.777344 108.734376 108.734375v212.425781c0 17.96875-14.617188 32.582032-32.582032 32.582032s-32.582031-14.613282-32.582031-32.582032v-168.339843c0-4.140625-3.355469-7.5-7.5-7.5-4.140625 0-7.5 3.359375-7.5 7.5v168.339843c0 26.238282 21.347656 47.582032 47.582031 47.582032s47.582032-21.34375 47.582032-47.582032v-212.425781c0-68.226562-55.507813-123.734375-123.734376-123.734375-68.226562 0-123.734374 55.507813-123.734374 123.734375v76.667969h-16.546876c-4.140624 0-7.5 3.359375-7.5 7.5 0 4.144531 3.359376 7.5 7.5 7.5h.515626v30.945312c-4.910157 4.3125-8.015626 10.632813-8.015626 17.667969v128.257813c0 7.035156 3.105469 13.355468 8.015626 17.671875v22.410156c0 8.554687 6.960937 15.515625 15.515624 15.515625h16.03125c8.558594 0 15.515626-6.960938 15.515626-15.515625v-22.410156c4.910156-4.316407 8.015624-10.636719 8.015624-17.671875v-128.257813c0-7.035156-3.105468-13.355469-8.015624-17.667969v-30.945312h.515624c4.144532 0 7.5-3.355469 7.5-7.5 0-4.140625-3.355468-7.5-7.5-7.5h-16.546874v-76.667969c0-59.957031 48.777343-108.734375 108.734374-108.734375zm-99.6875 249.015625v128.257813c0 4.707031-3.828124 8.53125-8.53125 8.53125h-16.03125c-4.707031 0-8.53125-3.828125-8.53125-8.53125v-128.257813c0-4.703125 3.828126-8.53125 8.53125-8.53125h16.03125c4.703126 0 8.53125 3.828125 8.53125 8.53125zm-8.015624 168.339844c0 .285156-.230469.515625-.515626.515625h-16.03125c-.285156 0-.515624-.230469-.515624-.515625v-16.5625c.171874.003906.34375.011719.515624.011719h16.03125c.171876 0 .34375-.007813.515626-.011719zm0-191.859375c-.171876-.003906-.34375-.011719-.515626-.011719h-16.03125c-.171874 0-.34375.007813-.515624.011719v-25.09375h17.0625zm0 0"/><path d="m228.441406 0c-112.425781 0-203.894531 91.46875-203.894531 203.894531v60.636719h-16.546875c-4.140625 0-7.5 3.359375-7.5 7.5 0 4.144531 3.359375 7.5 7.5 7.5h.515625v30.945312c-4.910156 4.3125-8.015625 10.632813-8.015625 17.667969v128.257813c0 7.035156 3.105469 13.355468 8.015625 17.671875v22.410156c0 8.554687 6.960937 15.515625 15.515625 15.515625h16.03125c8.558594 0 15.515625-6.960938 15.515625-15.515625v-22.410156c4.910156-4.316407 8.019531-10.636719 8.019531-17.671875v-80.160156c0-4.140626-3.359375-7.5-7.5-7.5-4.144531 0-7.5 3.359374-7.5 7.5v80.160156c0 4.707031-3.828125 8.53125-8.535156 8.53125h-16.03125c-4.703125 0-8.53125-3.828125-8.53125-8.53125v-128.257813c0-4.703125 3.828125-8.53125 8.53125-8.53125h16.03125c4.707031 0 8.535156 3.828125 8.535156 8.53125v16.035157c0 4.140624 3.355469 7.5 7.5 7.5 4.140625 0 7.5-3.359376 7.5-7.5v-16.035157c0-7.035156-3.109375-13.355469-8.019531-17.667969v-30.945312h.519531c4.140625 0 7.5-3.355469 7.5-7.5 0-4.140625-3.359375-7.5-7.5-7.5h-16.550781v-60.636719c0-104.15625 84.738281-188.894531 188.894531-188.894531 104.160156 0 188.898438 84.738281 188.898438 188.894531v196.394531c0 53.328126-43.386719 96.710938-96.710938 96.710938-53.328125 0-96.710937-43.382812-96.710937-96.710938v-216.433593c0-13.546875 11.019531-24.566407 24.566406-24.566407 13.542969 0 24.5625 11.023438 24.5625 24.566407v16.035156c0 4.140625 3.359375 7.5 7.5 7.5s7.5-3.359375 7.5-7.5v-16.035156c0-21.816407-17.75-39.566407-39.5625-39.566407-21.816406 0-39.566406 17.75-39.566406 39.566407v216.433593c0 61.597657 50.113281 111.710938 111.710937 111.710938s111.710938-50.113281 111.710938-111.710938v-196.394531c0-112.425781-91.46875-203.894531-203.898438-203.894531zm-188.378906 479.9375c.175781 0 .34375-.011719.515625-.015625v16.5625c0 .285156-.230469.515625-.515625.515625h-16.03125c-.285156 0-.515625-.230469-.515625-.515625v-16.5625c.171875.003906.34375.015625.515625.015625zm.515625-175.3125c-.171875-.003906-.339844-.011719-.515625-.011719h-16.03125c-.171875 0-.34375.007813-.515625.011719v-25.09375h17.0625zm0 0"/></svg>