<?xml version="1.0" encoding="utf-8"?>
<!-- Generator: Adobe Illustrator 19.0.0, SVG Export Plug-In . SVG Version: 6.00 Build 0)  -->
<svg xmlns="http://www.w3.org/2000/svg" xmlns:xlink="http://www.w3.org/1999/xlink" version="1.1" id="Capa_1" x="0px" y="0px" viewBox="0 0 512 512" style="enable-background:new 0 0 512 512;" xml:space="preserve" width="512px" height="512px">
<g>
	<g>
		<path d="M498.604,269.095l-19.939-19.936c-10.148-10.148-23.64-15.736-37.99-15.736H187.179L80.435,125.074    c-9.18-9.317-21.943-14.29-34.999-13.644c-13.064,0.646-25.267,6.854-33.481,17.031C-5.34,149.887-3.7,180.729,15.772,200.199    l22.846,22.846v162.576c0,8.284,6.716,15.001,15.001,15.001s15.001-6.716,15.001-15.001v-39.11l48.28-45.185l19.761,19.761    c2.813,2.813,6.628,4.394,10.607,4.394h197.138l35.941,67.215c2.702,5.054,7.884,7.93,13.241,7.93    c2.387,0,4.809-0.571,7.061-1.775c7.306-3.906,10.062-12.996,6.154-20.302l-28.377-53.067h46.612l8.59,8.591    c8.604,8.604,20.371,13.457,32.506,13.457c0.547,0,1.097-0.01,1.645-0.029c12.711-0.461,24.772-6.242,33.09-15.862    C516.544,313.511,515.549,286.038,498.604,269.095z M68.62,305.419v-52.372l27.052,27.052L68.62,305.419z M478.176,312.012    c-2.929,3.387-7.006,5.342-11.481,5.504c-4.479,0.15-8.684-1.493-11.851-4.659l-12.985-12.985    c-2.813-2.813-6.628-4.394-10.607-4.394H153.479v0L36.986,178.985c-8.598-8.599-9.323-22.217-1.686-31.68    c2.893-3.583,7.019-5.682,11.619-5.91c4.586-0.227,8.911,1.454,12.145,4.734l111.151,112.82c2.819,2.862,6.669,4.474,10.687,4.474    h259.776c6.336,0,12.295,2.468,16.776,6.949l19.939,19.937C483.272,296.189,483.617,305.722,478.176,312.012z" fill="#FFFFFF"/>
	</g>
</g>
<g>
</g>
<g>
</g>
<g>
</g>
<g>
</g>
<g>
</g>
<g>
</g>
<g>
</g>
<g>
</g>
<g>
</g>
<g>
</g>
<g>
</g>
<g>
</g>
<g>
</g>
<g>
</g>
<g>
</g>
</svg>
