<?xml version="1.0" encoding="utf-8"?>
<!-- Generator: Adobe Illustrator 17.1.0, SVG Export Plug-In . SVG Version: 6.00 Build 0)  -->
<!DOCTYPE svg PUBLIC "-//W3C//DTD SVG 1.1//EN" "http://www.w3.org/Graphics/SVG/1.1/DTD/svg11.dtd">
<svg xmlns="http://www.w3.org/2000/svg" xmlns:xlink="http://www.w3.org/1999/xlink" version="1.1" id="Capa_1" x="0px" y="0px" viewBox="0 0 476.151 476.151" style="enable-background:new 0 0 476.151 476.151;" xml:space="preserve" width="512px" height="512px">
<path d="M315.074,90.526l-35.315-1.3c-3.394-14.886-16.731-26.033-32.631-26.033c-16.36,0-30.007,11.8-32.901,27.333H7.501  c-3.401,0-6.376,2.288-7.249,5.575c-0.873,3.287,0.575,6.749,3.527,8.437l48.541,27.737H11.42c-4.142,0-7.5,3.357-7.5,7.5  s3.358,7.5,7.5,7.5h67.15l32.247,18.427l35.704,29.589c19.021,15.764,41.78,27.105,65.818,32.801  c23.729,5.622,48.811,5.767,72.605,0.426c0.359,0.005,0.716,0.015,1.073,0.027c0.445,0.015,0.89,0.028,1.332,0.053  c0.47,0.027,0.936,0.068,1.403,0.107c0.44,0.037,0.881,0.072,1.318,0.119c0.463,0.05,0.921,0.114,1.381,0.176  c0.434,0.059,0.87,0.115,1.301,0.184c0.456,0.073,0.907,0.159,1.358,0.243c0.427,0.08,0.855,0.157,1.279,0.247  c0.448,0.095,0.89,0.203,1.334,0.308c0.421,0.101,0.843,0.198,1.26,0.308c0.438,0.116,0.871,0.245,1.304,0.371  c0.293,0.085,0.586,0.171,0.877,0.261l-26.935,21.247c-0.231,0.183-0.451,0.378-0.659,0.586c-7.255,7.255-11.25,16.901-11.25,27.162  v17.938c0,4.143,3.358,7.5,7.5,7.5s7.5-3.357,7.5-7.5v-17.938c0-6.116,2.33-11.875,6.569-16.263l32.201-25.401  c0.179,0.125,0.357,0.253,0.534,0.38c0.343,0.247,0.689,0.489,1.026,0.743c0.351,0.265,0.693,0.542,1.038,0.816  c0.33,0.262,0.663,0.519,0.986,0.788c0.339,0.282,0.667,0.575,0.998,0.865c0.316,0.276,0.636,0.549,0.946,0.832  c0.325,0.298,0.639,0.606,0.956,0.912c0.303,0.291,0.609,0.578,0.905,0.875c0.311,0.313,0.609,0.637,0.912,0.957  c0.288,0.305,0.581,0.605,0.862,0.916c0.296,0.327,0.579,0.666,0.867,1c0.273,0.318,0.552,0.632,0.818,0.956  c0.281,0.342,0.548,0.695,0.821,1.044c0.257,0.33,0.52,0.655,0.77,0.991c0.265,0.356,0.516,0.723,0.773,1.086  c0.241,0.342,0.488,0.679,0.721,1.026c0.25,0.371,0.485,0.752,0.725,1.13c0.223,0.351,0.453,0.697,0.668,1.053  c0.234,0.387,0.453,0.784,0.678,1.178c0.205,0.358,0.416,0.712,0.613,1.076c0.216,0.4,0.417,0.809,0.623,1.215  c0.187,0.368,0.382,0.732,0.561,1.105c0.198,0.412,0.379,0.833,0.567,1.251c0.169,0.377,0.346,0.749,0.507,1.13  c0.18,0.427,0.342,0.862,0.511,1.294c0.15,0.382,0.308,0.761,0.449,1.147c0.161,0.442,0.304,0.892,0.454,1.339  c0.13,0.386,0.268,0.768,0.389,1.158c0.142,0.458,0.265,0.925,0.395,1.389c0.109,0.387,0.227,0.77,0.327,1.161  c0.123,0.478,0.225,0.963,0.335,1.446c0.087,0.384,0.185,0.765,0.264,1.152c0.102,0.501,0.183,1.011,0.272,1.517  c0.066,0.376,0.142,0.749,0.2,1.127c0.08,0.526,0.138,1.059,0.203,1.59c0.045,0.366,0.101,0.729,0.139,1.098  c0.06,0.593,0.096,1.193,0.137,1.791c0.021,0.312,0.055,0.621,0.071,0.934c0.046,0.915,0.07,1.835,0.07,2.761  c0,29.769-24.218,53.986-53.987,53.986h-0.516c-0.569,0-1.131,0.026-1.691,0.063c-0.159,0.01-0.318,0.023-0.476,0.036  c-0.466,0.04-0.928,0.091-1.387,0.156c-0.195,0.027-0.388,0.059-0.581,0.091c-0.384,0.064-0.765,0.135-1.143,0.216  c-0.274,0.058-0.546,0.122-0.818,0.189c-0.182,0.046-0.363,0.096-0.543,0.146c-4.559,1.238-8.646,3.721-11.818,7.172  c-5.057-4.986-11.994-8.07-19.64-8.07H110.19c-5.104,0-9.526,3.282-11.005,8.166c-1.479,4.885,0.38,10.068,4.627,12.899  c4.391,2.928,19.862,9.931,39.391,18.009c0.135,0.061,0.271,0.116,0.41,0.169c39.792,16.444,96.133,37.243,110.15,37.243  c5.432,0,10.357-2.2,13.94-5.752c4.343,3.592,9.911,5.752,15.974,5.752h31.259c88.895,0,161.216-72.321,161.216-161.217  C476.151,162.896,403.902,90.605,315.074,90.526z M247.128,78.193c9.695,0,17.654,7.512,18.401,17.018  c-0.055,0.324-0.098,0.654-0.11,0.992c-0.021,0.563,0.026,1.112,0.124,1.643c-0.612,9.638-8.626,17.297-18.415,17.297  c-10.188,0-18.476-8.288-18.476-18.476C228.652,86.481,236.941,78.193,247.128,78.193z M156.092,183.742l-36.204-30.004  c-0.333-0.276-0.689-0.522-1.064-0.737l-10.02-5.726H204c4.017,0,7.284,3.268,7.284,7.284s-3.268,7.284-7.284,7.284h-9.755  c-4.142,0-7.5,3.357-7.5,7.5s3.358,7.5,7.5,7.5H204c12.288,0,22.284-9.997,22.284-22.284s-9.997-22.284-22.284-22.284H82.554  l-46.811-26.749h179.108c3.894,14.172,16.885,24.617,32.277,24.617c15.855,0,29.161-11.084,32.602-25.908l27.704,1.02v41.523  c0,25.309-9.585,49.145-27.032,67.365C236.791,223.517,190.478,212.239,156.092,183.742z M258.573,393.149  c0,2.652-2.158,4.81-4.811,4.81c-7.837,0-37.754-10.19-68.196-21.743h53.81c4.142,0,7.5-3.357,7.5-7.5s-3.358-7.5-7.5-7.5h-91.762  c-8.749-3.608-16.571-6.958-22.719-9.743h120.682c7.166,0,12.996,5.83,12.996,12.996v23.388V393.149z M314.935,397.958h-31.259  c-5.57,0-10.103-4.532-10.103-10.103v-23.388v-2.894c0-1.387,0.282-2.71,0.79-3.915c0.006-0.014,0.013-0.028,0.018-0.042  c0.124-0.291,0.261-0.575,0.411-0.852c0.001-0.002,0.002-0.004,0.003-0.006c1.393-2.559,3.861-4.451,6.793-5.069  c0.051-0.011,0.103-0.019,0.155-0.029c0.249-0.049,0.502-0.086,0.757-0.116c0.079-0.009,0.158-0.02,0.237-0.027  c0.309-0.029,0.622-0.048,0.938-0.048h0.516c22.115,0,41.818-10.471,54.451-26.703c6.995,18.534,19.367,34.143,35.861,45.18  c1.281,0.857,2.73,1.268,4.164,1.268c2.419,0,4.794-1.169,6.24-3.33c2.303-3.442,1.38-8.101-2.063-10.404  c-14.146-9.465-24.699-22.92-30.52-38.911l-3.948-10.849c1.606-4.07,2.834-8.326,3.644-12.729  c13.313,6.811,28.041,10.297,42.827,10.297c12.969,0,25.979-2.671,38.096-8.098c3.78-1.693,5.473-6.13,3.779-9.91  c-1.693-3.78-6.13-5.475-9.91-3.779c-23.831,10.672-51.751,8.637-73.77-5.152c-0.785-13.206-5.306-25.416-12.512-35.603  c34.585-4.959,64.857-26.159,81.247-57.8c1.905-3.678,0.468-8.203-3.21-10.108c-3.68-1.906-8.205-0.469-10.109,3.21  c-15.835,30.569-46.693,49.837-80.978,50.776c-0.072-0.058-0.146-0.114-0.219-0.172l2.239-1.766  c3.252-2.565,3.809-7.281,1.244-10.533c-2.566-3.253-7.281-3.809-10.534-1.244l-6.428,5.07c-4.585-2.187-9.452-3.869-14.524-5.004  c15.029-19.537,23.175-43.34,23.175-68.398v-41.062c77.153,3.917,138.717,67.917,138.717,146.027  C461.151,332.366,395.559,397.958,314.935,397.958z" fill="#FFFFFF"/>
<g>
</g>
<g>
</g>
<g>
</g>
<g>
</g>
<g>
</g>
<g>
</g>
<g>
</g>
<g>
</g>
<g>
</g>
<g>
</g>
<g>
</g>
<g>
</g>
<g>
</g>
<g>
</g>
<g>
</g>
</svg>
