<svg height="512" viewBox="0 0 192 192" width="512" xmlns="http://www.w3.org/2000/svg"><g id="_09-zen" data-name="09-zen"><path d="m190.952 92.042-41-72a8 8 0 0 0 -6.952-4.042h-96a8 8 0 0 0 -7.034 4.19l-39 72a8 8 0 0 0 0 7.62l39 72a8 8 0 0 0 7.034 4.19h96a8 8 0 0 0 6.952-4.042l41-72a8 8 0 0 0 0-7.916zm-52.602 67.958h-86.585l-34.665-64 34.665-64h86.585l36.444 64z"/><path d="m96 40a56 56 0 1 0 56 56 56.063 56.063 0 0 0 -56-56zm-32 79.975a39.981 39.981 0 0 1 32-63.975 16 16 0 0 1 0 32 32.037 32.037 0 0 0 -32 31.975zm32 16.025a16 16 0 0 1 0-32 32.035 32.035 0 0 0 32-31.973 39.979 39.979 0 0 1 -32 63.973z"/><circle cx="96" cy="72" r="8"/><circle cx="96" cy="120" r="8"/></g></svg>