<svg xmlns="http://www.w3.org/2000/svg" xmlns:xlink="http://www.w3.org/1999/xlink" width="398" height="5" viewBox="0 0 398 5">
  <defs>
    <clipPath id="clip-path">
      <rect width="398" height="5" fill="none"/>
    </clipPath>
  </defs>
  <g id="Componente_16_28" data-name="Componente 16 – 28" clip-path="url(#clip-path)">
    <g id="Grupo_8895" data-name="Grupo 8895">
      <path id="Retângulo_311" data-name="Retângulo 311" d="M0,0H132.667a0,0,0,0,1,0,0V5a0,0,0,0,1,0,0H4A4,4,0,0,1,0,1V0A0,0,0,0,1,0,0Z" fill="#fc0"/>
      <rect id="Retângulo_312" data-name="Retângulo 312" width="132.667" height="5" transform="translate(132.667)" fill="#8eb71b"/>
      <path id="Retângulo_313" data-name="Retângulo 313" d="M0,0H132.667a0,0,0,0,1,0,0V1a4,4,0,0,1-4,4H0A0,0,0,0,1,0,5V0A0,0,0,0,1,0,0Z" transform="translate(265.333)" fill="#00a0ad"/>
    </g>
  </g>
</svg>
