<svg xmlns="http://www.w3.org/2000/svg" width="26.827" height="23.914" viewBox="0 0 26.827 23.914">
  <g id="home" transform="translate(0 0)">
    <g id="Grupo_8637" data-name="Grupo 8637" transform="translate(0)">
      <g id="Grupo_8636" data-name="Grupo 8636">
        <path id="Caminho_57" data-name="Caminho 57" d="M26.542,37.243,13.825,27.932a.7.7,0,0,0-.823,0L.285,37.243a.7.7,0,0,0,.824,1.125l12.3-9.009,12.3,9.009a.7.7,0,0,0,.824-1.125Z" transform="translate(0.001 -27.798)" fill="#fff"/>
      </g>
    </g>
    <g id="Grupo_8639" data-name="Grupo 8639" transform="translate(2.958 10.728)">
      <g id="Grupo_8638" data-name="Grupo 8638">
        <path id="Caminho_58" data-name="Caminho 58" d="M76.667,232.543a.7.7,0,0,0-.7.7v11.1H70.393v-6.056a3.485,3.485,0,0,0-6.971,0v6.056H57.846v-11.1a.7.7,0,0,0-1.394,0v11.792a.7.7,0,0,0,.7.7h6.97a.7.7,0,0,0,.694-.643.525.525,0,0,0,0-.054v-6.753a2.091,2.091,0,0,1,4.183,0v6.753a.511.511,0,0,0,0,.054.7.7,0,0,0,.694.643h6.97a.7.7,0,0,0,.7-.7V233.24A.7.7,0,0,0,76.667,232.543Z" transform="translate(-56.452 -232.543)" fill="#fff"/>
      </g>
    </g>
  </g>
</svg>
