<?xml version="1.0" encoding="utf-8"?>
<!-- Generator: Adobe Illustrator 19.0.0, SVG Export Plug-In . SVG Version: 6.00 Build 0)  -->
<svg version="1.1" id="icones" xmlns="http://www.w3.org/2000/svg" xmlns:xlink="http://www.w3.org/1999/xlink" x="0px" y="0px"
	 viewBox="0 0 412 82" style="enable-background:new 0 0 412 82;" xml:space="preserve">
<style type="text/css">
	.st0{fill-rule:evenodd;clip-rule:evenodd;fill:#FFFFFF;}
	.st1{fill:#FFFFFF;}
</style>
<g id="XMLID_178_">
	<path id="XMLID_208_" class="st0" d="M41.7,73.5c-1,0-1.6-0.6-1.8-1.4c-2.6-22.8-2.6-22.8-2.6-22.8c0-0.4-0.3-0.7-0.7-0.7
		c-0.3,0-0.5,0.3-0.5,0.7c-2.7,22.8-2.7,22.8-2.7,22.8c0,0.8-0.8,1.4-1.8,1.4c-0.8,0-1.6-0.7-1.6-1.4c0-0.1,0-0.3,0-0.4
		c0-0.3,0-0.7,0-1.2c0-1,0-2.5,0.1-4.4c0-3.6,0.1-8.4,0.3-13.3c0.3-9.8,0.5-19.5,0.5-19.5c0-0.3-0.3-0.6-0.5-0.7
		c-0.3,0-0.5,0.1-0.7,0.4c-6,13.1-6,13.1-6,13.1c-0.1,0.4-0.4,0.7-1,0.7c-0.1,0-0.3-0.1-0.4-0.1c-0.5-0.1-1-0.8-0.8-1.2l0,0
		c0-0.1,0.1-0.4,0.1-0.7c0.1-0.4,0.4-1,0.5-1.7c1.5-4.6,4.9-15.2,5.8-17c0.8-1.7,2.5-3.3,8.8-3.3c6.3,0,8.1,1.7,8.8,3.3
		c0.8,1.8,4.2,12.4,5.8,17c0.3,0.7,0.4,1.2,0.5,1.7c0.1,0.3,0.1,0.6,0.3,0.7l0,0c0.1,0.4-0.3,1.1-0.8,1.2c-0.3,0-0.4,0.1-0.5,0.1
		c-0.4,0-0.8-0.3-1-0.7l-5.9-13.1c-0.1-0.3-0.4-0.4-0.8-0.4c-0.3,0.1-0.4,0.4-0.4,0.7c0,0,0.1,9.7,0.4,19.5
		c0.1,4.8,0.3,9.7,0.4,13.3c0,1.8,0,3.3,0,4.4c0.1,0.8,0.1,1.4,0.1,1.7l0,0C43.3,72.8,42.6,73.5,41.7,73.5 M43.9,36.5
		c4.5,10.2,4.5,10.2,4.5,10.2c0.4,0.8,1.2,1.4,2.2,1.4c0.3,0,0.7,0,1-0.1c1.2-0.4,1.9-1.7,1.6-2.9l0,0c-0.1-0.1-0.4-1.1-0.8-2.3
		c-1.6-5-4.9-15.3-5.8-17.1c-1.4-2.9-4.4-4-10-4c-5.6,0-8.5,1.1-9.9,4c-1,1.8-4.2,12.2-5.9,17.1c-0.3,1.1-0.7,2.2-0.7,2.3l0,0
		c-0.4,1.2,0.4,2.5,1.6,2.9c0.3,0.1,0.5,0.1,0.8,0.1c1,0,1.8-0.6,2.2-1.4c4.7-10.2,4.7-10.2,4.7-10.2c-0.4,13.5-0.8,34.7-1,35.6
		c0,0,0,0,0,0.1c0.1,1.4,1.5,2.5,3,2.5c1.6,0,3-1.1,3-2.5c2.1-17.4,2.1-17.4,2.1-17.4c2.1,17.4,2.1,17.4,2.1,17.4
		c0.1,1.4,1.5,2.5,3,2.5l0,0c1.6,0,2.9-1.1,3-2.5c0-0.1,0-0.1,0-0.1C44.7,71.2,44.1,50,43.9,36.5z M36.6,8.6c2.9,0,5.1,2.2,5.1,5
		c0,2.9-2.2,5.1-5.1,5.1c-2.7,0-5.1-2.2-5.1-5.1C31.5,10.8,33.9,8.6,36.6,8.6z M36.6,20.1c3.6,0,6.3-2.9,6.3-6.5
		c0-3.5-2.7-6.4-6.3-6.4c-3.4,0-6.3,2.9-6.3,6.4C30.3,17.2,33.2,20.1,36.6,20.1z"/>
	<path id="XMLID_199_" class="st0" d="M377.9,67.5c12.8,0,12.8,0,12.8,0c0-32.3,0-32.3,0-32.3c-12.8,0-12.8,0-12.8,0V67.5z
		 M391.4,68.7c-14.1,0-14.1,0-14.1,0c-0.3,0-0.6-0.3-0.6-0.6c0-33.5,0-33.5,0-33.5c0-0.3,0.3-0.6,0.6-0.6c14.1,0,14.1,0,14.1,0
		c0.3,0,0.6,0.3,0.6,0.6c0,33.5,0,33.5,0,33.5C392,68.4,391.7,68.7,391.4,68.7z M366.1,14.5c2.4,2.3,2.4,2.3,2.4,2.3
		c0.2,0.3,0.2,0.6,0,0.9c-25.4,30-25.4,30-25.4,30c-0.1,0.2-0.1,0.3,0,0.4c0.1,0.2,0.2,0.2,0.3,0.2c0.1,0,0.2,0,0.3-0.1
		c30.7-24.7,30.7-24.7,30.7-24.7c0.3-0.3,0.6-0.2,0.9,0c2.4,2.4,2.4,2.4,2.4,2.4c0-11.4,0-11.4,0-11.4H366.1z M343.4,49.5
		c-0.4,0-0.9-0.2-1.2-0.6c-0.4-0.6-0.4-1.4,0-2c25.1-29.5,25.1-29.5,25.1-29.5c-3.1-3-3.1-3-3.1-3c-0.2-0.2-0.2-0.4-0.1-0.7
		c0.1-0.3,0.3-0.3,0.5-0.3c13.5,0,13.5,0,13.5,0c0.3,0,0.6,0.3,0.6,0.6c0,13.5,0,13.5,0,13.5c0,0.3-0.1,0.4-0.3,0.5
		c-0.3,0.1-0.5,0.1-0.7-0.1c-3.1-3-3.1-3-3.1-3c-30.2,24.3-30.2,24.3-30.2,24.3C344.2,49.4,343.8,49.5,343.4,49.5z M343.2,67.5
		c12.8,0,12.8,0,12.8,0c0-10,0-10,0-10c-12.8,0-12.8,0-12.8,0V67.5z M356.6,68.7c-14,0-14,0-14,0c-0.3,0-0.6-0.3-0.6-0.6
		c0-11.2,0-11.2,0-11.2c0-0.3,0.3-0.6,0.6-0.6c14,0,14,0,14,0c0.3,0,0.6,0.3,0.6,0.6c0,11.2,0,11.2,0,11.2
		C357.2,68.4,356.9,68.7,356.6,68.7z M360.5,67.5c12.8,0,12.8,0,12.8,0c0-21.2,0-21.2,0-21.2c-12.8,0-12.8,0-12.8,0V67.5z M374,68.7
		c-14.1,0-14.1,0-14.1,0c-0.3,0-0.6-0.3-0.6-0.6c0-22.4,0-22.4,0-22.4c0-0.3,0.3-0.6,0.6-0.6c14.1,0,14.1,0,14.1,0
		c0.3,0,0.6,0.3,0.6,0.6c0,22.4,0,22.4,0,22.4C374.6,68.4,374.3,68.7,374,68.7z"/>
	<g id="XMLID_2_">
		<path id="XMLID_193_" class="st0" d="M295.8,63.4c-70.9,0-70.9,0-70.9,0c-1.1,0-1.9-0.8-1.9-2c0-1.1,0.8-2,1.9-2
			c70.9,0,70.9,0,70.9,0c1.1,0,2.1,0.8,2.1,2C297.9,62.6,296.9,63.4,295.8,63.4z M232.3,22c0-2,1.6-3.4,3.6-3.4c49,0,49,0,49,0
			c1.9,0,3.4,1.5,3.4,3.4c0,32.5,0,32.5,0,32.5c0,2-1.5,3.4-3.4,3.4c-49,0-49,0-49,0c-1.9,0-3.6-1.5-3.6-3.4V22z M295.8,57.9
			c-7.3,0-7.3,0-7.3,0c0.8-0.8,1.3-2.1,1.3-3.4c0-32.5,0-32.5,0-32.5c0-2.8-2.1-5-4.9-5c-49,0-49,0-49,0c-2.8,0-5,2.3-5,5
			c0,32.5,0,32.5,0,32.5c0,1.3,0.5,2.6,1.5,3.4c-7.5,0-7.5,0-7.5,0c-1.9,0-3.6,1.6-3.6,3.6c0,2,1.6,3.6,3.6,3.6
			c70.9,0,70.9,0,70.9,0c1.9,0,3.6-1.6,3.6-3.6C299.3,59.5,297.7,57.9,295.8,57.9z M237.9,23.4c45.1,0,45.1,0,45.1,0
			c0,29.6,0,29.6,0,29.6c-45.1,0-45.1,0-45.1,0V23.4z M237,54.5c46.7,0,46.7,0,46.7,0c0.3,0,0.6-0.3,0.6-0.7c0-31.2,0-31.2,0-31.2
			c0-0.3-0.3-0.7-0.6-0.7C237,22,237,22,237,22c-0.5,0-0.8,0.3-0.8,0.7c0,31.2,0,31.2,0,31.2C236.2,54.2,236.6,54.5,237,54.5z"/>
	</g>
	<path id="XMLID_184_" class="st0" d="M161.6,8.3c11.6,0,11.6,0,11.6,0c0,11.6,0,11.6,0,11.6c-11.6,0-11.6,0-11.6,0V8.3z
		 M161.6,26.3c11.6,0,11.6,0,11.6,0c0,11.6,0,11.6,0,11.6c-11.6,0-11.6,0-11.6,0V26.3z M149.5,29.3c-11.6,0-11.6,0-11.6,0
		c0-11.6,0-11.6,0-11.6c11.6,0,11.6,0,11.6,0V29.3z M137.9,52.7c11.6,0,11.6,0,11.6,0c0,11.6,0,11.6,0,11.6c-11.6,0-11.6,0-11.6,0
		V52.7z M161.6,44.1c11.6,0,11.6,0,11.6,0c0,11.6,0,11.6,0,11.6c-11.6,0-11.6,0-11.6,0V44.1z M161.6,62.1c11.6,0,11.6,0,11.6,0
		c0,11.6,0,11.6,0,11.6c-11.6,0-11.6,0-11.6,0V62.1z M126.5,46.8c-11.6,0-11.6,0-11.6,0c0-11.6,0-11.6,0-11.6c11.6,0,11.6,0,11.6,0
		V46.8z M160.9,21.4c13.1,0,13.1,0,13.1,0c0.3,0,0.8-0.3,0.8-0.8c0-13.1,0-13.1,0-13.1c0-0.4-0.4-0.8-0.8-0.8c-13.1,0-13.1,0-13.1,0
		c-0.4,0-0.8,0.3-0.8,0.8c0,5.7,0,5.7,0,5.7c-4.4,0-4.4,0-4.4,0c-0.4,0-0.8,0.3-0.8,0.8c0,8.8,0,8.8,0,8.8c-3.9,0-3.9,0-3.9,0
		c0-5.8,0-5.8,0-5.8c0-0.4-0.3-0.8-0.8-0.8c-13.1,0-13.1,0-13.1,0c-0.4,0-0.8,0.3-0.8,0.8c0,5.8,0,5.8,0,5.8c-3.9,0-3.9,0-3.9,0
		c-0.4,0-0.8,0.3-0.8,0.8c0,16.7,0,16.7,0,16.7c-3.7,0-3.7,0-3.7,0c0-5.7,0-5.7,0-5.7c0-0.4-0.3-0.8-0.8-0.8c-13.1,0-13.1,0-13.1,0
		c-0.4,0-0.8,0.3-0.8,0.8c0,13.1,0,13.1,0,13.1c0,0.4,0.3,0.8,0.8,0.8c13.1,0,13.1,0,13.1,0c0.4,0,0.8-0.3,0.8-0.8
		c0-5.8,0-5.8,0-5.8c3.7,0,3.7,0,3.7,0c0,16.8,0,16.8,0,16.8c0,0.3,0.3,0.8,0.8,0.8c3.9,0,3.9,0,3.9,0c0,5.7,0,5.7,0,5.7
		c0,0.4,0.3,0.8,0.8,0.8c13.1,0,13.1,0,13.1,0c0.4,0,0.8-0.3,0.8-0.8c0-5.7,0-5.7,0-5.7c3.9,0,3.9,0,3.9,0c0,8.7,0,8.7,0,8.7
		c0,0.4,0.3,0.8,0.8,0.8c4.4,0,4.4,0,4.4,0c0,5.7,0,5.7,0,5.7c0,0.4,0.3,0.8,0.8,0.8c13.1,0,13.1,0,13.1,0c0.3,0,0.8-0.3,0.8-0.8
		c0-13.1,0-13.1,0-13.1c0-0.4-0.4-0.8-0.8-0.8c-13.1,0-13.1,0-13.1,0c-0.4,0-0.8,0.3-0.8,0.8c0,5.8,0,5.8,0,5.8c-3.7,0-3.7,0-3.7,0
		c0-16.4,0-16.4,0-16.4c3.7,0,3.7,0,3.7,0c0,5.7,0,5.7,0,5.7c0,0.4,0.3,0.8,0.8,0.8c13.1,0,13.1,0,13.1,0c0.3,0,0.8-0.3,0.8-0.8
		c0-13.1,0-13.1,0-13.1c0-0.3-0.4-0.8-0.8-0.8c-13.1,0-13.1,0-13.1,0c-0.4,0-0.8,0.4-0.8,0.8c0,5.8,0,5.8,0,5.8c-4.4,0-4.4,0-4.4,0
		c-0.4,0-0.8,0.3-0.8,0.8c0,7.8,0,7.8,0,7.8c-3.9,0-3.9,0-3.9,0c0-5.8,0-5.8,0-5.8c0-0.4-0.3-0.8-0.8-0.8c-13.1,0-13.1,0-13.1,0
		c-0.4,0-0.8,0.3-0.8,0.8c0,5.8,0,5.8,0,5.8c-3.1,0-3.1,0-3.1,0c0-33.4,0-33.4,0-33.4c3.1,0,3.1,0,3.1,0c0,5.7,0,5.7,0,5.7
		c0,0.4,0.3,0.8,0.8,0.8c13.1,0,13.1,0,13.1,0c0.4,0,0.8-0.3,0.8-0.8c0-5.7,0-5.7,0-5.7c3.9,0,3.9,0,3.9,0c0,7.8,0,7.8,0,7.8
		c0,0.4,0.3,0.8,0.8,0.8c4.4,0,4.4,0,4.4,0c0,5.7,0,5.7,0,5.7c0,0.4,0.3,0.8,0.8,0.8c13.1,0,13.1,0,13.1,0c0.3,0,0.8-0.3,0.8-0.8
		c0-13.1,0-13.1,0-13.1c0-0.4-0.4-0.8-0.8-0.8c-13.1,0-13.1,0-13.1,0c-0.4,0-0.8,0.3-0.8,0.8c0,5.8,0,5.8,0,5.8c-3.7,0-3.7,0-3.7,0
		c0-16.6,0-16.6,0-16.6c3.7,0,3.7,0,3.7,0c0,5.8,0,5.8,0,5.8C160.1,21.1,160.4,21.4,160.9,21.4z"/>
	<path id="XMLID_180_" class="st1" d="M81.5,63.3c-0.1,0-0.2,0-0.3-0.1c-0.4-0.2-0.5-0.6-0.3-1l10.6-20.6L80.9,19.8
		c-0.2-0.4,0-0.8,0.3-1c0.4-0.2,0.8,0,1,0.3L93,41.2c0.1,0.2,0.1,0.5,0,0.7L82.2,62.9C82.1,63.1,81.8,63.3,81.5,63.3z"/>
	<path id="XMLID_181_" class="st1" d="M198.5,63.3c-0.1,0-0.2,0-0.3-0.1c-0.4-0.2-0.5-0.6-0.3-1l10.6-20.6l-10.6-21.7
		c-0.2-0.4,0-0.8,0.3-1c0.4-0.2,0.8,0,1,0.3L210,41.2c0.1,0.2,0.1,0.5,0,0.7l-10.8,20.9C199.1,63.1,198.8,63.3,198.5,63.3z"/>
	<path id="XMLID_182_" class="st1" d="M315.5,63.3c-0.1,0-0.2,0-0.3-0.1c-0.4-0.2-0.5-0.6-0.3-1l10.6-20.6l-10.6-21.7
		c-0.2-0.4,0-0.8,0.3-1c0.4-0.2,0.8,0,1,0.3L327,41.2c0.1,0.2,0.1,0.5,0,0.7l-10.8,20.9C316.1,63.1,315.8,63.3,315.5,63.3z"/>
</g>
</svg>
