<svg id="Layer_3" enable-background="new 0 0 64 64" height="512" viewBox="0 0 64 64" width="512" xmlns="http://www.w3.org/2000/svg"><path d="m60.4 51.199c-.564-.751-1.461-1.199-2.4-1.199h-.171c-.801 0-1.555.312-2.122.879l-4.65 4.65-17.74-20.696 3.278-3.824 1.698 1.698c.188.188.442.293.707.293.013 0 .026 0 .04-.001.279-.011.54-.138.721-.351l22.477-26.385c.491-.577.762-1.312.762-2.07 0-1.761-1.432-3.193-3.193-3.193h-2.816c-.917 0-1.792.395-2.396 1.083l-21.345 24.256c-.349.396-.33.995.043 1.368l1.884 1.884-3.177 3.706-3.177-3.706 1.884-1.884c.373-.373.392-.972.043-1.368l-21.344-24.255c-.606-.689-1.48-1.084-2.397-1.084h-2.816c-1.761 0-3.193 1.432-3.193 3.193 0 .758.271 1.493.762 2.07l22.477 26.385c.181.212.442.34.721.351.014.001.027.001.04.001.265 0 .519-.105.707-.293l1.698-1.698 3.278 3.824-17.74 20.696-4.65-4.65c-.566-.567-1.32-.879-2.122-.879h-.171c-.939 0-1.836.448-2.4 1.2l-2 2.667c-.387.516-.6 1.155-.6 1.8v.304c0 .966.47 1.879 1.256 2.441l5.098 3.641c.868.619 1.89.947 2.955.947 1.358 0 2.634-.529 3.594-1.489l1.804-1.804c.391-.391.391-1.023 0-1.414l-1.345-1.345 17.638-20.578 17.638 20.578-1.345 1.345c-.391.391-.391 1.023 0 1.414l1.804 1.804c.96.96 2.236 1.489 3.594 1.489 1.065 0 2.087-.328 2.955-.947l5.098-3.642c.786-.561 1.256-1.474 1.256-2.44v-.304c0-.645-.213-1.284-.6-1.8zm-4.304-47.795c.226-.257.552-.404.895-.404h2.816c.658 0 1.193.535 1.193 1.193 0 .283-.101.558-.285.773l-21.774 25.561-3.571-3.57zm-31.037 27.123-21.774-25.56c-.184-.217-.285-.491-.285-.774 0-.658.535-1.193 1.193-1.193h2.816c.343 0 .669.147.896.405l20.725 23.552zm-12.57 29.57c-1.039 1.039-2.775 1.184-3.973.328l-5.097-3.641c-.262-.187-.419-.491-.419-.813v-.304c0-.215.071-.428.2-.6l2-2.667c.188-.251.487-.4.8-.4h.171c.267 0 .519.104.708.293l6.707 6.707zm48.511-4.126c0 .322-.157.626-.418.813l-5.098 3.641c-1.197.856-2.932.711-3.973-.328l-1.097-1.097 6.707-6.707c.189-.189.441-.293.708-.293h.171c.313 0 .612.149.8.4l2 2.667c.129.172.2.385.2.6z"/><path d="m32 43c-5.514 0-10 4.486-10 10s4.486 10 10 10 10-4.486 10-10-4.486-10-10-10zm0 18c-4.411 0-8-3.589-8-8s3.589-8 8-8 8 3.589 8 8-3.589 8-8 8z"/><path d="m31 47h2v2h-2z"/><path d="m31 51h2v2h-2z"/><path d="m33 49h2v2h-2z"/><path d="m35 51h2v2h-2z"/><path d="m35 55h2v2h-2z"/><path d="m37 53h2v2h-2z"/></svg>