<svg height="512pt" viewBox="0 -36 512 512" width="512pt" xmlns="http://www.w3.org/2000/svg"><path d="m477.605469 362.011719h-50.820313l-265.347656-265.34375h-161.4375v74.710937h130.492188l265.34375 265.34375h116.164062v-40.320312zm19.394531 59.710937h-94.949219l-265.34375-265.34375h-5.875v-30.207031h-15v30.207031h-100.832031v-44.710937h20v27.5h15v-27.5h105.226562l260.953126 260.949219v31.550781h15v-27.15625h40.214843l25.605469 25.605469zm0 0"/><path d="m130.832031 84.167969v-1.25c0-26.421875-21.492187-47.917969-47.914062-47.917969s-47.917969 21.496094-47.917969 47.917969v1.25h15v-1.25c0-18.152344 14.765625-32.917969 32.917969-32.917969 18.148437 0 32.914062 14.765625 32.914062 32.917969v1.25zm0 0"/><path d="m15 82.917969c0-37.449219 30.46875-67.917969 67.917969-67.917969s67.914062 30.46875 67.914062 67.917969v1.25h15v-1.25c0-45.722657-37.195312-82.917969-82.917969-82.917969-45.71875 0-82.914062 37.195312-82.914062 82.917969v1.25h15zm0 0"/><path d="m35 183.878906v24.808594h95.832031v-24.808594h-15v9.808594h-65.832031v-9.808594zm0 0"/><path d="m150.832031 424h-20v-59.644531h-95.832031v57.367187h-20v-237.84375h-15v252.84375h50v-57.367187h65.832031v59.644531h50v-222.101562h-15zm0 0"/><path d="m35 281.023438h95.832031v-61.335938h-95.832031zm15-46.335938h65.832031v31.335938h-65.832031zm0 0"/><path d="m35 353.355469h95.832031v-61.332031h-95.832031zm15-46.332031h65.832031v31.332031h-65.832031zm0 0"/><path d="m232.265625 421.722656h-13.570313v-151.964844h-15v166.964844h43.570313v-138.394531h-15zm0 0"/><path d="m316.070312 421.722656h-13.570312v-68.160156h-15v83.160156h43.570312v-54.589844h-15zm0 0"/><path d="m345.269531 335.710938-118.390625-118.394532 10.605469-10.605468 118.394531 118.394531zm-125.460937-125.464844-10.609375-10.605469 10.609375-10.605469 10.605468 10.605469zm-17.679688-17.675782-10.605468-10.605468 10.605468-10.609375 10.605469 10.609375zm0 0"/></svg>