<svg id="Layer_3" enable-background="new 0 0 64 64" height="512" viewBox="0 0 64 64" width="512" xmlns="http://www.w3.org/2000/svg"><path d="m62 13h-60c-.553 0-1 .448-1 1v36c0 .552.447 1 1 1h60c.553 0 1-.448 1-1v-36c0-.552-.447-1-1-1zm-10 21c-1.103 0-2-.897-2-2s.897-2 2-2 2 .897 2 2-.897 2-2 2zm-.196-5.98c-2.113.105-3.804 1.842-3.804 3.98s1.691 3.875 3.804 3.98l9.196 1.84v7.18h-3c-7.168 0-13-5.832-13-13s5.832-13 13-13h3v7.18zm3.223 6.566c.598-.7.973-1.596.973-2.586s-.375-1.886-.973-2.586l5.973-1.194v7.561zm-24.027 2.313c-2.279-.465-4-2.484-4-4.899s1.721-4.434 4-4.899zm2-9.798c2.279.465 4 2.484 4 4.899s-1.721 4.434-4 4.899zm-23 4.899c0-1.103.897-2 2-2s2 .897 2 2-.897 2-2 2-2-.897-2-2zm-1.027 2.586-5.973 1.194v-7.56l5.973 1.195c-.598.699-.973 1.595-.973 2.585s.375 1.886.973 2.586zm-5.973 3.234 9.196-1.839c2.113-.106 3.804-1.843 3.804-3.981s-1.691-3.875-3.804-3.98l-9.196-1.84v-7.18h3c7.168 0 13 5.832 13 13s-5.832 13-13 13h-3zm0 9.18h3c8.271 0 15-6.729 15-15s-6.729-15-15-15h-3v-2h28v10.08c-3.386.488-6 3.401-6 6.92s2.614 6.432 6 6.92v10.08h-28zm30 2v-10.08c3.386-.488 6-3.401 6-6.92s-2.614-6.432-6-6.92v-10.08h28v2h-3c-8.271 0-15 6.729-15 15s6.729 15 15 15h3v2z"/></svg>