<svg id="Capa_1" enable-background="new 0 0 512 512" height="512" viewBox="0 0 512 512" width="512" xmlns="http://www.w3.org/2000/svg"><path d="m512 437c0-8.284-6.716-15-15-15h-16.509c-5.98-29.344-29.147-52.511-58.491-58.491 0-14.467 0-248.517 0-257.506.438-3.304.987-6.458 1.645-9.462 11.108-5.921 22.861-3.763 30.997.934 9.801 5.658 19.047 17.697 15.605 34.517-1.907 9.316 5.221 18.01 14.711 18.01 6.977 0 13.227-4.894 14.68-11.996 5.469-26.727-6.306-52.834-29.996-66.512-8.899-5.138-18.476-7.941-28.047-8.48 3.089-2.62 6.511-4.755 10.272-6.387 16.398-7.118 32.502-2.243 35.304-.298 6.201 5.382 15.593 4.78 21.053-1.378 5.497-6.198 4.928-15.679-1.271-21.175-11.424-10.129-39.032-15.308-63.718-6.01-6.802 2.562-14.197 6.485-21.234 12.467v-25.233c0-8.284-6.716-15-15-15s-15 6.716-15 15v25.289c-7.034-5.974-14.425-9.895-21.224-12.455-24.724-9.311-52.33-4.165-63.729 5.943-6.198 5.496-6.768 14.977-1.271 21.175 5.455 6.152 14.838 6.759 21.037 1.391 2.846-1.943 19.048-6.773 35.448.402 3.677 1.609 7.013 3.721 10.045 6.275-9.54.553-19.084 3.356-27.954 8.477-23.688 13.676-35.46 39.783-29.991 66.509 1.453 7.102 7.702 11.996 14.68 11.996 9.507 0 16.613-8.714 14.711-18.01-3.441-16.82 5.803-28.857 15.601-34.514 8.135-4.695 19.883-6.856 30.986-.945.665 3.025 1.22 6.198 1.66 9.529v110.785c-86.985 33.524-185.014 33.524-272 0v-110.84c.438-3.306.987-6.461 1.645-9.465 11.108-5.92 22.861-3.763 30.997.935 9.801 5.658 19.047 17.697 15.605 34.517-1.907 9.315 5.221 18.011 14.711 18.01 6.976-.001 13.227-4.895 14.68-11.996 5.469-26.726-6.305-52.834-29.996-66.512-8.899-5.138-18.476-7.941-28.048-8.481 3.089-2.62 6.511-4.755 10.272-6.387 16.4-7.12 32.502-2.243 35.303-.298 6.199 5.381 15.592 4.781 21.054-1.377 5.496-6.198 4.927-15.679-1.271-21.175-11.424-10.129-39.033-15.308-63.717-6.01-6.802 2.562-14.198 6.486-21.235 12.469v-25.237c0-8.284-6.716-15-15-15s-15 6.716-15 15v25.288c-7.033-5.974-14.424-9.894-21.223-12.454-24.723-9.311-52.331-4.165-63.729 5.943-6.198 5.496-6.767 14.977-1.271 21.175 5.455 6.152 14.836 6.759 21.037 1.392 2.845-1.943 19.05-6.773 35.449.402 3.677 1.609 7.013 3.721 10.045 6.275-9.541.553-19.084 3.356-27.954 8.477-23.688 13.676-35.46 39.783-29.991 66.509 1.453 7.102 7.703 11.996 14.68 11.996 9.507 0 16.614-8.713 14.711-18.01-3.442-16.819 5.802-28.857 15.6-34.514 8.133-4.696 19.883-6.856 30.987-.945.665 3.025 1.22 6.2 1.66 9.532v257.444c-29.344 5.98-52.511 29.146-58.492 58.49h-16.509c-8.284 0-15 6.716-15 15s6.716 15 15 15h482c8.284 0 15-6.716 15-15zm-392-75v-87.051c33.639 36.678 82.666 59.756 136 59.756 53.319 0 102.348-23.062 136-59.756v87.051zm248.188-105.606c-28.663 30.177-69.342 48.311-112.188 48.311s-83.525-18.134-112.188-48.311c36.532 10.386 74.359 15.586 112.188 15.586s75.656-5.2 112.188-15.586zm-263.188 135.606h302c19.555 0 36.228 12.541 42.42 30h-386.84c6.193-17.459 22.866-30 42.42-30z"/><path d="m166 482h-91c-8.284 0-15 6.716-15 15s6.716 15 15 15h91c8.284 0 15-6.716 15-15s-6.716-15-15-15z"/><path d="m437 482h-91c-8.284 0-15 6.716-15 15s6.716 15 15 15h91c8.284 0 15-6.716 15-15s-6.716-15-15-15z"/><path d="m286 482h-60c-8.284 0-15 6.716-15 15s6.716 15 15 15h60c8.284 0 15-6.716 15-15s-6.716-15-15-15z"/><circle cx="15" cy="497" r="15"/><circle cx="497" cy="497" r="15"/></svg>