<?xml version="1.0" encoding="utf-8"?>
<!-- Generator: Adobe Illustrator 17.1.0, SVG Export Plug-In . SVG Version: 6.00 Build 0)  -->
<!DOCTYPE svg PUBLIC "-//W3C//DTD SVG 1.1//EN" "http://www.w3.org/Graphics/SVG/1.1/DTD/svg11.dtd">
<svg xmlns="http://www.w3.org/2000/svg" xmlns:xlink="http://www.w3.org/1999/xlink" version="1.1" id="Capa_1" x="0px" y="0px" viewBox="0 0 479.587 479.587" style="enable-background:new 0 0 479.587 479.587;" xml:space="preserve" width="512px" height="512px">
<path d="M446.043,329.787v28.46c0,4.142-3.357,7.5-7.5,7.5s-7.5-3.358-7.5-7.5v-28.46c0-4.142,3.357-7.5,7.5-7.5  S446.043,325.645,446.043,329.787z M475.444,74.203V427.59c0,4.142-3.357,7.5-7.5,7.5h-78.821v36.997c0,4.142-3.357,7.5-7.5,7.5  H11.643c-4.143,0-7.5-3.358-7.5-7.5V74.203C4.143,33.288,37.43,0,78.346,0h322.895C442.157,0,475.444,33.288,475.444,74.203z   M374.123,223.447H20.871c-0.596,0-1.172-0.077-1.728-0.208v127.716c0.555-0.131,1.132-0.208,1.728-0.208h353.252V223.447z   M19.143,464.587h354.979v-98.84H20.871c-0.596,0-1.172-0.077-1.728-0.208V464.587z M460.444,74.203  c0-32.645-26.559-59.203-59.203-59.203H78.346c-32.645,0-59.203,26.559-59.203,59.203v134.452c0.555-0.131,1.132-0.208,1.728-0.208  h353.252v-134.8c0-19.829,16.132-35.96,35.96-35.96c19.829,0,35.961,16.131,35.961,35.96v199.219c0,4.142-3.357,7.5-7.5,7.5  s-7.5-3.358-7.5-7.5V73.647c0-11.558-9.402-20.96-20.96-20.96s-20.961,9.402-20.961,20.96V420.09h71.321V74.203z" fill="#FFFFFF"/>
<g>
</g>
<g>
</g>
<g>
</g>
<g>
</g>
<g>
</g>
<g>
</g>
<g>
</g>
<g>
</g>
<g>
</g>
<g>
</g>
<g>
</g>
<g>
</g>
<g>
</g>
<g>
</g>
<g>
</g>
</svg>
