<?xml version="1.0" encoding="utf-8"?>
<!-- Generator: Adobe Illustrator 19.0.0, SVG Export Plug-In . SVG Version: 6.00 Build 0)  -->
<svg xmlns="http://www.w3.org/2000/svg" xmlns:xlink="http://www.w3.org/1999/xlink" version="1.1" id="Capa_1" x="0px" y="0px" viewBox="0 0 512 512" style="enable-background:new 0 0 512 512;" xml:space="preserve" width="512px" height="512px">
<g>
	<g>
		<path d="M81.948,243.651c-5.392-1.18-10.727,2.226-11.914,7.621l-0.092,0.42c-1.184,5.393,2.228,10.727,7.622,11.913    c0.723,0.159,1.445,0.235,2.156,0.235c4.593,0,8.73-3.185,9.757-7.855l0.092-0.42C90.754,250.171,87.342,244.837,81.948,243.651z" fill="#FFFFFF"/>
	</g>
</g>
<g>
	<g>
		<path d="M323.07,169.552c-1.86-1.86-4.44-2.92-7.07-2.92s-5.21,1.06-7.07,2.92c-1.86,1.86-2.93,4.44-2.93,7.08    c0,2.63,1.07,5.21,2.93,7.07c1.86,1.86,4.44,2.92,7.07,2.92s5.21-1.06,7.07-2.92c1.86-1.86,2.93-4.44,2.93-7.07    C326,173.992,324.93,171.412,323.07,169.552z" fill="#FFFFFF"/>
	</g>
</g>
<g>
	<g>
		<path d="M502,474.582h-10.959L404.123,79.084h23.043c17.001,0,30.833-13.832,30.833-30.833c0-17.001-13.832-30.833-30.833-30.833    H84.833C67.832,17.418,54,31.25,54,48.251c0,17.001,13.832,30.833,30.833,30.833h23.043L78.967,210.63    c-1.186,5.394,2.227,10.728,7.621,11.914c5.395,1.186,10.728-2.226,11.914-7.621l29.853-135.838h19.328L60.71,474.582H41.437    l37.647-171.304c1.186-5.394-2.227-10.728-7.621-11.914c-5.392-1.185-10.728,2.227-11.914,7.621l-38.59,175.597H10    c-5.523,0-10,4.477-10,10s4.477,10,10,10h82c5.523,0,10-4.477,10-10s-4.477-10-10-10H81.188L168.16,79.084H186v172.413    c-12.068,8.3-20,22.199-20,37.92v61.029c-11.781,5.347-20,17.214-20,30.971c0,18.748,15.252,34,34,34h152    c18.748,0,34-15.252,34-34c0-13.758-8.219-25.625-20-30.971v-61.029c0-15.721-7.932-29.62-20-37.92v-37.915    c0-5.523-4.477-10-10-10s-10,4.477-10,10v30.24c-1.966-0.257-3.965-0.404-6-0.404h-88c-2.035,0-4.034,0.147-6,0.404V79.084h100    v60.498c0,5.523,4.477,10,10,10s10-4.477,10-10V79.084h17.84l86.972,395.498H420c-5.523,0-10,4.477-10,10s4.477,10,10,10h82    c5.523,0,10-4.477,10-10S507.523,474.582,502,474.582z M160.12,59.085v-0.001h-39.807h-35.48C78.86,59.084,74,54.225,74,48.251    c0-5.973,4.86-10.833,10.833-10.833H186v21.667H160.12z M332,367.418c7.72,0,14,6.28,14,14c0,7.72-6.28,14-14,14H180    c-7.72,0-14-6.28-14-14c0-7.72,6.28-14,14-14H332z M212,263.418h88c14.336,0,26,11.664,26,26v58H186v-58    C186,275.082,197.664,263.418,212,263.418z M306,59.085H206v-0.001V37.418h100V59.085z M326,59.084V37.418h101.167    c5.974,0,10.833,4.86,10.833,10.833c0,5.974-4.86,10.833-10.833,10.833h-35.48H351.88H326z M451.29,474.582L364.318,79.084h19.328    l86.918,395.498H451.29z" fill="#FFFFFF"/>
	</g>
</g>
<g>
</g>
<g>
</g>
<g>
</g>
<g>
</g>
<g>
</g>
<g>
</g>
<g>
</g>
<g>
</g>
<g>
</g>
<g>
</g>
<g>
</g>
<g>
</g>
<g>
</g>
<g>
</g>
<g>
</g>
</svg>
