<svg height="431pt" viewBox="-5 0 431 431.693" width="431pt" xmlns="http://www.w3.org/2000/svg"><path d="m8.847656 431.691406h30c4.417969 0 7.5-3.886718 7.5-8.304687v-130.695313h328v130.695313c0 4.417969 3.085938 8.304687 7.5 8.304687h30c4.578125-.097656 8.292969-3.730468 8.5-8.304687v-314.117188c0-4.417969-4.078125-7.578125-8.5-7.578125h-30c-2.027344-.074218-3.988281.703125-5.414062 2.144532-1.425782 1.4375-2.183594 3.410156-2.085938 5.433593v34.421875h-328v-34.421875c.09375-2.023437-.660156-3.996093-2.085937-5.433593-1.425781-1.441407-3.390625-2.21875-5.414063-2.144532h-30c-4.425781 0-8.5 3.160156-8.5 7.578125v314.117188c.203125 4.574219 3.921875 8.207031 8.5 8.304687zm37.5-155v-49h73v49zm89 0v-49h67v49zm83 0v-49h68v49zm84 0v-49h72v49zm102-159v298h-14v-298zm-30 42v52h-72v-52zm-88 0v52h-68v-52zm-84 0v52h-67v-52zm-83 0v52h-73v-52zm-103-42h14v298h-14zm0 0"/><path d="m198.964844 47.746094c0 26.371094 21.378906 47.75 47.75 47.75s47.746094-21.378906 47.746094-47.75c0-26.367188-21.375-47.746094-47.746094-47.746094-26.359375.0273438-47.71875 21.390625-47.75 47.746094zm79.5 0c0 17.535156-14.214844 31.75-31.746094 31.75-17.535156 0-31.75-14.214844-31.75-31.75 0-17.53125 14.214844-31.746094 31.75-31.746094 17.523438.023438 31.722656 14.222656 31.742188 31.746094zm0 0"/></svg>